<?xml version="1.0" standalone="no"?>
<!DOCTYPE svg PUBLIC "-//W3C//DTD SVG 20010904//EN"
 "http://www.w3.org/TR/2001/REC-SVG-20010904/DTD/svg10.dtd">
<svg version="1.0" xmlns="http://www.w3.org/2000/svg"
 width="1024.000000pt" height="1024.000000pt" viewBox="0 0 1024.000000 1024.000000"
 preserveAspectRatio="xMidYMid meet">

<g transform="translate(0.000000,1024.000000) scale(0.100000,-0.100000)"
fill="#000000" stroke="none">
<path d="M0 5120 l0 -5120 5120 0 5120 0 0 5120 0 5120 -5120 0 -5120 0 0
-5120z m2565 2845 c144 -121 431 -378 715 -640 222 -204 299 -273 534 -476 99
-84 274 -236 390 -337 116 -101 271 -234 345 -295 260 -219 279 -228 294 -147
4 25 21 115 37 200 17 85 39 225 50 310 12 85 48 346 80 580 72 512 100 750
100 850 0 114 16 73 34 -90 26 -225 115 -911 136 -1050 10 -69 35 -249 54
-400 37 -286 62 -437 76 -459 17 -28 184 86 330 225 47 44 150 136 230 204 80
68 205 178 278 244 74 67 171 152 215 190 77 64 317 279 537 481 52 48 201
179 330 290 129 111 280 244 335 296 235 221 522 479 510 459 -16 -28 -190
-232 -425 -500 -128 -146 -310 -362 -404 -480 -95 -118 -229 -281 -298 -362
-69 -80 -176 -208 -239 -285 -62 -76 -177 -211 -255 -300 -78 -89 -247 -287
-375 -440 -129 -153 -264 -311 -301 -352 -37 -40 -65 -77 -63 -82 3 -4 29 -12
58 -18 78 -16 695 -104 1092 -156 490 -63 1015 -139 1015 -145 0 -3 -62 -12
-137 -18 -147 -14 -671 -79 -1093 -136 -750 -102 -844 -116 -923 -137 l-38
-10 47 -57 c26 -31 77 -89 113 -127 36 -39 163 -187 281 -330 118 -143 264
-316 325 -386 138 -157 518 -604 615 -724 41 -49 139 -169 220 -265 80 -96
217 -263 305 -370 88 -107 233 -285 324 -395 90 -110 171 -209 180 -220 21
-27 -30 19 -234 211 -208 196 -354 330 -595 544 -101 91 -266 242 -365 335
-99 94 -229 213 -290 265 -126 108 -650 581 -801 721 -233 219 -452 393 -479
383 -29 -12 -69 -261 -205 -1299 -22 -170 -47 -348 -55 -395 -12 -69 -45 -367
-45 -404 0 -5 -2 -7 -5 -5 -2 3 -16 104 -30 225 -14 120 -34 284 -45 364 -11
80 -42 321 -70 535 -100 773 -130 961 -157 982 -17 13 -59 -16 -212 -147 -42
-36 -123 -106 -181 -154 -58 -49 -222 -200 -365 -336 -286 -271 -349 -329
-893 -828 -205 -188 -435 -395 -510 -460 -119 -101 -470 -414 -586 -521 -58
-54 -35 -22 104 144 69 83 181 219 248 302 67 84 209 255 315 380 106 126 260
309 343 408 83 99 199 232 259 295 59 63 179 203 268 310 88 107 206 249 261
315 55 66 157 188 226 270 129 154 297 371 319 414 8 14 9 27 4 32 -11 11
-329 55 -1088 148 -857 106 -1119 141 -1047 141 33 0 388 43 537 66 434 64
787 118 976 149 113 19 262 41 330 49 143 17 289 53 289 72 0 14 -29 52 -108
138 -29 32 -150 180 -268 328 -235 294 -358 441 -474 563 -92 97 -218 244
-369 427 -133 163 -275 328 -466 539 -77 85 -194 218 -260 294 -66 77 -193
224 -282 327 -90 103 -163 190 -163 192 0 3 91 -74 203 -172 111 -97 261 -227
332 -287z m3913 51 c15 -8 38 -26 52 -41 21 -23 25 -36 25 -90 0 -49 -5 -70
-21 -91 -34 -47 -68 -66 -116 -66 -92 -2 -162 73 -155 165 2 27 13 61 24 75
40 56 132 79 191 48z m-3678 -1772 c102 -41 90 -159 -28 -265 -91 -80 -291
-169 -383 -169 -52 0 -90 13 -119 40 -76 71 -10 201 153 305 143 90 288 124
377 89z m4960 -85 c64 -15 158 -62 207 -104 56 -48 98 -132 89 -180 -10 -52
-57 -100 -112 -115 -89 -25 -256 22 -355 101 -51 40 -99 123 -99 170 0 46 35
99 80 121 39 20 121 23 190 7z m-5059 -1910 c95 -32 130 -130 75 -214 -57 -87
-196 -74 -241 22 -36 75 3 170 80 192 42 13 47 13 86 0z m5296 -213 c27 -29
33 -44 33 -80 0 -118 -152 -164 -217 -67 -85 126 82 258 184 147z m-3768
-1321 c31 -16 61 -69 61 -108 0 -87 -81 -231 -182 -322 -107 -97 -254 -139
-309 -90 -52 48 -62 110 -30 201 40 111 174 263 276 310 58 28 141 32 184 9z"/>
</g>
</svg>
